:SAMPLES-PER-SECOND 30
:FULLY-SPECIFIED
:DEGREES
885
root  -13.4197 38.5384 -3.15322 -13.1672 70.0586 -9.41626
RightUpLeg  -9.68171 -7.45834 8.00724
RightLeg  25.4636 -3.09348 -1.24911
RightFoot  -10.4632 -0.0105706 -7.78154
RightToes  2.21189e-009 0 -3.6325e-017
Spine  3.69005 -2.60119 11.9682
Spine1  9.20787 -2.03298 3.47263
HEad  -15.5026 -14.3239 1.33342
LeftShoulder1  0.189159 3.00387 -31.7246
LeftArm  3.72253 14.6226 -42.0574
LeftForeArm  19.2407 -17.0343 -6.07338
LeftHand  -0.00710462 4.02693 -1.3757
RightShoulder  -0.778369 -5.68949 28.9708
RightArm  18.3218 -5.06272 43.7641
RightForeArm  -3.99384 15.5595 6.32325
RightHand  -0.739654 3.73507 -9.67496
LeftUpLeg  -10.0715 2.35093 6.18858
LeftLeg  62.7432 -3.87751 -7.61791
LeftFoot  5.1879 1.21799 -8.58152
LeftToes  -3.01956e-010 3.07132e-011 1.04116e-011
886
root  -12.2291 38.7939 -2.74434 -10.9092 69.0084 -6.63116
RightUpLeg  -5.92437 -7.63982 6.42556
RightLeg  23.3339 -1.72885 -0.0573224
RightFoot  -11.4247 -0.0823662 -7.40089
RightToes  2.21189e-009 0 -3.6325e-017
Spine  3.77218 -2.11332 12.1245
Spine1  8.99573 -1.22416 1.9432
HEad  -14.2219 -14.0989 0.703125
LeftShoulder1  0.194747 2.9886 -31.6928
LeftArm  5.29332 15.4613 -41.8194
LeftForeArm  16.0826 -18.813 -5.39238
LeftHand  -0.0199892 4.03915 -0.192462
RightShoulder  -0.716424 -5.55403 28.2815
RightArm  21.5332 -3.90528 44.8298
RightForeArm  -4.87466 20.0356 5.41481
RightHand  -0.740097 3.68125 -9.75608
LeftUpLeg  -13.3739 2.18714 5.99029
LeftLeg  60.2605 -2.60535 -4.38751
LeftFoot  3.69274 0.52487 -4.12896
LeftToes  -3.01956e-010 3.07132e-011 1.04116e-011
887
root  -11.0598 38.9671 -2.34507 -8.21832 67.2848 -3.70068
RightUpLeg  -2.91153 -7.56654 4.94036
RightLeg  21.7904 0.056902 0.735547
RightFoot  -12.3917 -0.149201 -7.12793
RightToes  2.21189e-009 0 -3.6325e-017
Spine  3.50644 -1.49902 12.0712
Spine1  9.0117 -0.347428 0.405886
HEad  -13.2309 -13.5354 0.263458
LeftShoulder1  0.187582 3.00461 -31.4681
LeftArm  4.70481 16.1889 -41.8571
LeftForeArm  15.457 -19.8791 -4.89104
LeftHand  -0.023114 3.71624 0.235907
RightShoulder  -0.66776 -5.42078 28.1437
RightArm  21.3082 -2.74513 45.2109
RightForeArm  -3.80408 24.612 5.38223
RightHand  -0.777697 5.39791 -8.6408
LeftUpLeg  -15.8812 2.15732 5.76048
LeftLeg  55.1089 -2.747 -3.72763
LeftFoot  1.06547 0.273416 -2.62218
LeftToes  -3.01956e-010 3.07132e-011 1.04116e-011
888
root  -9.91401 39.0542 -1.93564 -6.56482 65.6148 -1.88165
RightUpLeg  -0.0132839 -7.58101 3.8011
RightLeg  20.2387 1.84339 1.25144
RightFoot  -13.4492 -0.222433 -7.13721
RightToes  2.21189e-009 0 -3.6325e-017
Spine  3.36356 -1.09537 11.7757
Spine1  8.98275 0.141081 -0.641786
HEad  -13.017 -13.0198 -0.391754
LeftShoulder1  0.152303 3.09856 -31.4748
LeftArm  4.69529 16.8048 -41.4917
LeftForeArm  14.8946 -21.0654 -4.5079
LeftHand  -0.0231499 3.31118 0.314862
RightShoulder  -0.663509 -5.41785 27.9633
RightArm  19.512 -1.53742 45.5187
RightForeArm  -1.80501 29.2914 6.45956
RightHand  -0.789286 5.28963 -8.86383
LeftUpLeg  -17.3946 1.98979 6.04219
LeftLeg  47.5371 -3.94803 -4.19547
LeftFoot  -0.494429 0.294983 -3.07372
LeftToes  -3.01956e-010 3.07132e-011 1.04116e-011
889
root  -8.75948 39.0907 -1.53424 -5.91931 64.0854 -1.22742
RightUpLeg  2.82916 -7.68522 2.93592
RightLeg  18.6291 3.63746 1.67039
RightFoot  -14.4344 -0.290456 -7.14871
RightToes  2.21189e-009 0 -3.6325e-017
Spine  3.03538 -0.94323 11.5264
Spine1  9.1444 0.23661 -1.32823
HEad  -13.3613 -12.4614 -0.849503
LeftShoulder1  0.115541 3.19668 -31.5048
LeftArm  4.73657 17.2658 -41.1082
LeftForeArm  14.2452 -21.7988 -4.35931
LeftHand  -0.0320252 3.69144 0.849128
RightShoulder  -0.619589 -5.30996 27.5821
RightArm  17.7469 -0.52198 46.1305
RightForeArm  -0.430257 33.522 7.48473
RightHand  -0.832917 5.05171 -9.54843
LeftUpLeg  -17.8709 1.88119 6.74704
LeftLeg  37.7349 -5.49327 -4.19505
LeftFoot  -0.913177 0.326131 -3.50394
LeftToes  -3.01956e-010 3.07132e-011 1.04116e-011
890
root  -7.63103 39.0952 -1.13919 -4.63708 62.0937 -0.540924
RightUpLeg  4.8475 -7.48741 2.17947
RightLeg  17.0853 5.70622 1.78375
RightFoot  -15.3617 -0.345204 -6.87136
RightToes  2.21189e-009 0 -3.6325e-017
Spine  2.40728 -0.452905 11.0599
Spine1  8.96869 0.582762 -1.91084
HEad  -13.4049 -11.8433 -0.951416
LeftShoulder1  0.132333 3.15313 -31.6181
LeftArm  4.08195 17.2059 -40.9153
LeftForeArm  15.448 -21.0208 -4.472
LeftHand  -0.0217996 3.70834 0.121752
RightShoulder  -0.66088 -5.43259 27.5669
RightArm  16.5281 0.153699 46.3623
RightForeArm  0.758516 37.4189 8.53547
RightHand  -0.849995 4.52215 -10.2197
LeftUpLeg  -17.791 1.83851 7.4674
LeftLeg  25.8178 -7.02331 -3.42548
LeftFoot  -0.16708 0.48818 -4.97632
LeftToes  -3.01956e-010 3.07132e-011 1.04116e-011
